<svg width="100" height="100" viewBox="0 0 100 100" fill="none" xmlns="http://www.w3.org/2000/svg">
<path d="M69.3086 81.9609H30.3086C23.7086 81.9609 18.3086 76.5609 18.3086 69.9609V30.9609C18.3086 24.3609 23.7086 18.9609 30.3086 18.9609H69.3086C75.9086 18.9609 81.3086 24.3609 81.3086 30.9609V69.9609C81.3086 76.5609 75.9086 81.9609 69.3086 81.9609Z" fill="#78CCD1" class="color"/>
<path d="M69.3086 82.9609H30.3086C23.1406 82.9609 17.3086 77.1289 17.3086 69.9609V30.9609C17.3086 23.7929 23.1406 17.9609 30.3086 17.9609H69.3086C76.4766 17.9609 82.3086 23.7929 82.3086 30.9609V69.9609C82.3086 77.1289 76.4776 82.9609 69.3086 82.9609ZM30.3086 19.9609C24.2436 19.9609 19.3086 24.8959 19.3086 30.9609V69.9609C19.3086 76.0259 24.2436 80.9609 30.3086 80.9609H69.3086C75.3736 80.9609 80.3086 76.0259 80.3086 69.9609V30.9609C80.3086 24.8959 75.3736 19.9609 69.3086 19.9609H30.3086Z" fill="#1F212B"/>
<path d="M76.8086 48.4609V67.1239C76.8086 72.8089 72.1566 77.4609 66.4716 77.4609H33.1456C27.4606 77.4609 22.8086 72.8089 22.8086 67.1239V33.7979C22.8086 28.1129 27.4606 23.4609 33.1456 23.4609H66.8086" fill="#78CCD1" class="color"/>
<path d="M66.4716 77.9609H33.1456C27.1696 77.9609 22.3086 73.0999 22.3086 67.1239V33.7979C22.3086 27.8219 27.1696 22.9609 33.1456 22.9609H66.8086C67.0846 22.9609 67.3086 23.1849 67.3086 23.4609C67.3086 23.7369 67.0846 23.9609 66.8086 23.9609H33.1456C27.7216 23.9609 23.3086 28.3739 23.3086 33.7979V67.1239C23.3086 72.5479 27.7216 76.9609 33.1456 76.9609H66.4716C71.8956 76.9609 76.3086 72.5479 76.3086 67.1239V48.4609C76.3086 48.1849 76.5326 47.9609 76.8086 47.9609C77.0846 47.9609 77.3086 48.1849 77.3086 48.4609V67.1239C77.3086 73.0989 72.4476 77.9609 66.4716 77.9609ZM76.8086 45.9609C76.5326 45.9609 76.3086 45.7369 76.3086 45.4609V41.4609C76.3086 41.1849 76.5326 40.9609 76.8086 40.9609C77.0846 40.9609 77.3086 41.1849 77.3086 41.4609V45.4609C77.3086 45.7369 77.0846 45.9609 76.8086 45.9609ZM76.8086 39.9609C76.5326 39.9609 76.3086 39.7369 76.3086 39.4609V37.4609C76.3086 37.1849 76.5326 36.9609 76.8086 36.9609C77.0846 36.9609 77.3086 37.1849 77.3086 37.4609V39.4609C77.3086 39.7369 77.0846 39.9609 76.8086 39.9609Z" fill="#1F212B"/>
<g clip-path="url(#clip0_5477_179)">
<path d="M66.6368 38.4004H33.3632C32.0601 38.4004 31 39.4605 31 40.7635V43.5446C31 44.8477 32.0601 45.9078 33.3632 45.9078H34.4696L46.6828 58.1211V68.8127C46.6828 69.1313 46.8747 69.4186 47.1691 69.5405C47.2665 69.5808 47.3689 69.6005 47.4703 69.6005C47.6754 69.6005 47.8769 69.5205 48.0276 69.3697L53.1159 64.2813C53.2636 64.1335 53.3467 63.9332 53.3467 63.7243V58.1209L65.5597 45.9078H66.6369C67.9399 45.9078 69.0001 44.8477 69.0001 43.5446V40.7635C69 39.4605 67.9399 38.4004 66.6368 38.4004ZM52.0015 57.2379C51.846 57.3935 51.7694 57.5979 51.7712 57.8018V63.3982L48.2582 66.9111V57.7972C48.2588 57.5948 48.182 57.3923 48.0276 57.2379L36.6976 45.9078H63.3315L52.0015 57.2379ZM67.4246 43.5446C67.4246 43.979 67.0712 44.3324 66.6368 44.3324H33.3632C32.9289 44.3324 32.5754 43.979 32.5754 43.5446V40.7635C32.5754 40.3292 32.9288 39.9758 33.3632 39.9758H66.6369C67.0712 39.9758 67.4246 40.3291 67.4246 40.7635L67.4246 43.5446Z" fill="black"/>
</g>
<defs>
<clipPath id="clip0_5477_179">
<rect width="38" height="38" fill="white" transform="translate(31 35)"/>
</clipPath>
</defs>
</svg>
