<svg width="100" height="100" viewBox="0 0 100 100" fill="none" xmlns="http://www.w3.org/2000/svg">
<path d="M69.3086 81.9609H30.3086C23.7086 81.9609 18.3086 76.5609 18.3086 69.9609V30.9609C18.3086 24.3609 23.7086 18.9609 30.3086 18.9609H69.3086C75.9086 18.9609 81.3086 24.3609 81.3086 30.9609V69.9609C81.3086 76.5609 75.9086 81.9609 69.3086 81.9609Z" fill="#78CCD1" class="color"/>
<path d="M69.3086 82.9609H30.3086C23.1406 82.9609 17.3086 77.1289 17.3086 69.9609V30.9609C17.3086 23.7929 23.1406 17.9609 30.3086 17.9609H69.3086C76.4766 17.9609 82.3086 23.7929 82.3086 30.9609V69.9609C82.3086 77.1289 76.4776 82.9609 69.3086 82.9609ZM30.3086 19.9609C24.2436 19.9609 19.3086 24.8959 19.3086 30.9609V69.9609C19.3086 76.0259 24.2436 80.9609 30.3086 80.9609H69.3086C75.3736 80.9609 80.3086 76.0259 80.3086 69.9609V30.9609C80.3086 24.8959 75.3736 19.9609 69.3086 19.9609H30.3086Z" fill="#1F212B"/>
<path d="M76.8086 48.4609V67.1239C76.8086 72.8089 72.1566 77.4609 66.4716 77.4609H33.1456C27.4606 77.4609 22.8086 72.8089 22.8086 67.1239V33.7979C22.8086 28.1129 27.4606 23.4609 33.1456 23.4609H66.8086" fill="#78CCD1" class="color"/>
<path d="M66.4716 77.9609H33.1456C27.1696 77.9609 22.3086 73.0999 22.3086 67.1239V33.7979C22.3086 27.8219 27.1696 22.9609 33.1456 22.9609H66.8086C67.0846 22.9609 67.3086 23.1849 67.3086 23.4609C67.3086 23.7369 67.0846 23.9609 66.8086 23.9609H33.1456C27.7216 23.9609 23.3086 28.3739 23.3086 33.7979V67.1239C23.3086 72.5479 27.7216 76.9609 33.1456 76.9609H66.4716C71.8956 76.9609 76.3086 72.5479 76.3086 67.1239V48.4609C76.3086 48.1849 76.5326 47.9609 76.8086 47.9609C77.0846 47.9609 77.3086 48.1849 77.3086 48.4609V67.1239C77.3086 73.0989 72.4476 77.9609 66.4716 77.9609ZM76.8086 45.9609C76.5326 45.9609 76.3086 45.7369 76.3086 45.4609V41.4609C76.3086 41.1849 76.5326 40.9609 76.8086 40.9609C77.0846 40.9609 77.3086 41.1849 77.3086 41.4609V45.4609C77.3086 45.7369 77.0846 45.9609 76.8086 45.9609ZM76.8086 39.9609C76.5326 39.9609 76.3086 39.7369 76.3086 39.4609V37.4609C76.3086 37.1849 76.5326 36.9609 76.8086 36.9609C77.0846 36.9609 77.3086 37.1849 77.3086 37.4609V39.4609C77.3086 39.7369 77.0846 39.9609 76.8086 39.9609Z" fill="#1F212B"/>
<path d="M33.25 58.4062C32.5769 58.4062 32.0312 58.9519 32.0312 59.625C32.0312 60.2981 32.5769 60.8437 33.25 60.8437V58.4062ZM39.1046 60.8437C39.7777 60.8437 40.3234 60.2981 40.3234 59.625C40.3234 58.9519 39.7777 58.4062 39.1046 58.4062V60.8437ZM65.75 43.375L66.6117 44.2368C67.0877 43.7608 67.0877 42.9892 66.6117 42.5132L65.75 43.375ZM61.6383 45.7632C61.1623 46.2392 61.1623 47.0108 61.6383 47.4868C62.1142 47.9627 62.8858 47.9627 63.3617 47.4868L61.6383 45.7632ZM63.3617 39.2632C62.8858 38.7873 62.1142 38.7873 61.6383 39.2632C61.1623 39.7392 61.1623 40.5108 61.6383 40.9868L63.3617 39.2632ZM44.1705 57.5573C43.6787 58.0167 43.6525 58.788 44.112 59.2798C44.5716 59.7717 45.3428 59.7979 45.8346 59.3383L44.1705 57.5573ZM33.25 60.8437H39.1046V58.4062H33.25V60.8437ZM48.5102 55.5183L52.5799 48.7357L50.4898 47.4816L46.4201 54.2643L48.5102 55.5183ZM59.8953 44.5937H65.75V42.1562H59.8953V44.5937ZM64.8883 42.5132L61.6383 45.7632L63.3617 47.4868L66.6117 44.2368L64.8883 42.5132ZM66.6117 42.5132L63.3617 39.2632L61.6383 40.9868L64.8883 44.2368L66.6117 42.5132ZM52.5799 48.7357C53.2854 47.5597 53.7715 46.7523 54.2146 46.1537C54.6421 45.5763 54.9749 45.2715 55.3337 45.0683L54.1329 42.9472C53.374 43.3768 52.8012 43.9664 52.2557 44.7033C51.7258 45.4189 51.1713 46.3456 50.4898 47.4816L52.5799 48.7357ZM59.8953 42.1562C58.5706 42.1562 57.4906 42.1549 56.6043 42.2411C55.6919 42.3297 54.8916 42.5176 54.1329 42.9472L55.3337 45.0683C55.6925 44.8652 56.1251 44.7366 56.8401 44.6671C57.5816 44.5951 58.5238 44.5937 59.8953 44.5937V42.1562ZM46.4201 54.2643C45.3201 56.0978 44.763 57.0037 44.1705 57.5573L45.8346 59.3383C46.7385 58.4937 47.4913 57.2167 48.5102 55.5183L46.4201 54.2643Z" fill="#1F212B"/>
<path d="M33.25 42.1563C32.5769 42.1563 32.0312 42.7019 32.0312 43.375C32.0312 44.0481 32.5769 44.5938 33.25 44.5938V42.1563ZM65.75 59.625L66.6117 60.4868C67.0877 60.0108 67.0877 59.2393 66.6117 58.7633L65.75 59.625ZM63.3617 55.5133C62.8858 55.0373 62.1142 55.0373 61.6383 55.5133C61.1623 55.9893 61.1623 56.7608 61.6383 57.2368L63.3617 55.5133ZM61.6383 62.0133C61.1623 62.4893 61.1623 63.2608 61.6383 63.7368C62.1142 64.2127 62.8858 64.2127 63.3617 63.7368L61.6383 62.0133ZM53.47 55.748C53.1237 55.1708 52.3751 54.9837 51.7979 55.33C51.2207 55.6763 51.0337 56.4249 51.38 57.0021L53.47 55.748ZM45.5299 47.2521C45.8762 47.8293 46.6249 48.0164 47.2021 47.6701C47.7793 47.3238 47.9663 46.5752 47.62 45.998L45.5299 47.2521ZM33.25 44.5938H40.8349V42.1563H33.25V44.5938ZM58.1651 60.8438H65.75V58.4063H58.1651V60.8438ZM66.6117 58.7633L63.3617 55.5133L61.6383 57.2368L64.8883 60.4868L66.6117 58.7633ZM64.8883 58.7633L61.6383 62.0133L63.3617 63.7368L66.6117 60.4868L64.8883 58.7633ZM58.1651 58.4063C57.1159 58.4063 56.7553 58.4009 56.4366 58.339L55.9709 60.7315C56.5749 60.8492 57.2144 60.8438 58.1651 60.8438V58.4063ZM51.38 57.0021C51.8691 57.8172 52.1934 58.3684 52.605 58.8259L54.4171 57.1955C54.2 56.9542 54.0099 56.6477 53.47 55.748L51.38 57.0021ZM56.4366 58.339C55.6571 58.1872 54.9483 57.7859 54.4171 57.1955L52.605 58.8259C53.4903 59.8098 54.6717 60.4787 55.9709 60.7315L56.4366 58.339ZM40.8349 44.5938C41.8841 44.5938 42.2447 44.5991 42.5634 44.6611L43.0291 42.2685C42.425 42.151 41.7856 42.1563 40.8349 42.1563V44.5938ZM47.62 45.998C47.1309 45.1828 46.8066 44.6317 46.3949 44.1742L44.5829 45.8046C44.8 46.0459 44.9901 46.3523 45.5299 47.2521L47.62 45.998ZM42.5634 44.6611C43.3428 44.8129 44.0517 45.2142 44.5829 45.8046L46.3949 44.1742C45.5097 43.1904 44.3282 42.5214 43.0291 42.2685L42.5634 44.6611Z" fill="#1F212B"/>
</svg>
