<svg width="100" height="100" viewBox="0 0 100 100" fill="none" xmlns="http://www.w3.org/2000/svg">
<path d="M80.9609 44.3066V69.3066C80.9609 75.9066 75.5609 81.3066 68.9609 81.3066H29.9609C23.3609 81.3066 17.9609 75.9066 17.9609 69.3066V30.3066C17.9609 23.7066 23.3609 18.3066 29.9609 18.3066H68.9609C75.5609 18.3066 80.9609 23.7066 80.9609 30.3066" fill="#D3A1A1"/>
<path d="M68.9609 82.3066H29.9609C22.7929 82.3066 16.9609 76.4746 16.9609 69.3066V30.3066C16.9609 23.1386 22.7929 17.3066 29.9609 17.3066H68.9609C76.1289 17.3066 81.9609 23.1386 81.9609 30.3066C81.9609 30.8586 81.5129 31.3066 80.9609 31.3066C80.4089 31.3066 79.9609 30.8586 79.9609 30.3066C79.9609 24.2416 75.0259 19.3066 68.9609 19.3066H29.9609C23.8959 19.3066 18.9609 24.2416 18.9609 30.3066V69.3066C18.9609 75.3716 23.8959 80.3066 29.9609 80.3066H68.9609C75.0259 80.3066 79.9609 75.3716 79.9609 69.3066V67.5C79.9609 66.948 80.448 66.5 81 66.5C81.552 66.5 81.9609 66.948 81.9609 67.5V69.3066C81.9609 76.4756 76.1289 82.3066 68.9609 82.3066Z" fill="#1F212B"/>
<path d="M76.4609 62.8066V66.4696C76.4609 72.1546 71.8089 76.8066 66.1239 76.8066H32.7979C27.1129 76.8066 22.4609 72.1546 22.4609 66.4696V33.1436C22.4609 27.4586 27.1129 22.8066 32.7979 22.8066H66.4609" fill="#D3A1A1"/>
<path d="M66.1239 77.3066H32.7979C26.8219 77.3066 21.9609 72.4456 21.9609 66.4696V33.1436C21.9609 27.1676 26.8219 22.3066 32.7979 22.3066H66.4609C66.7369 22.3066 66.9609 22.5306 66.9609 22.8066C66.9609 23.0826 66.7369 23.3066 66.4609 23.3066H32.7979C27.3739 23.3066 22.9609 27.7196 22.9609 33.1436V66.4696C22.9609 71.8936 27.3739 76.3066 32.7979 76.3066H66.1239C71.5479 76.3066 75.9609 71.8936 75.9609 66.4696V62.8066C75.9609 62.5306 76.1849 62.3066 76.4609 62.3066C76.7369 62.3066 76.9609 62.5306 76.9609 62.8066V66.4696C76.9609 72.4456 72.0989 77.3066 66.1239 77.3066Z" fill="#1F212B"/>
<path d="M76.5 54C76.224 54 76 53.776 76 53.5V49.5C76 49.224 76.224 49 76.5 49C76.776 49 77 49.224 77 49.5V53.5C77 53.776 76.776 54 76.5 54ZM76.5 48C76.224 48 76 47.776 76 47.5V45.5C76 45.224 76.224 45 76.5 45C76.776 45 77 45.224 77 45.5V47.5C77 47.776 76.776 48 76.5 48Z" fill="#1F212B"/>
<rect x="50.8281" y="29.6368" width="52" height="3" rx="1.5" transform="rotate(45 50.8281 29.6368)" fill="#FF7979"/>
<rect x="50.8281" y="29.6368" width="52" height="3" rx="1.5" transform="rotate(45 50.8281 29.6368)" fill="#FF7979"/>
<rect x="50.8281" y="29.6368" width="52" height="3" rx="1.5" transform="rotate(45 50.8281 29.6368)" fill="#FF7979"/>
<rect x="50.8281" y="29.6368" width="52" height="3" rx="1.5" transform="rotate(45 50.8281 29.6368)" fill="#FF7979"/>
<rect x="50.8281" y="29.6368" width="52" height="3" rx="1.5" transform="rotate(45 50.8281 29.6368)" stroke="black"/>
<rect x="48.7071" y="66.4062" width="52" height="3" rx="1.5" transform="rotate(-45 48.7071 66.4062)" fill="#FF7979"/>
<rect x="48.7071" y="66.4062" width="52" height="3" rx="1.5" transform="rotate(-45 48.7071 66.4062)" fill="#FF7979"/>
<rect x="48.7071" y="66.4062" width="52" height="3" rx="1.5" transform="rotate(-45 48.7071 66.4062)" fill="#FF7979"/>
<rect x="48.7071" y="66.4062" width="52" height="3" rx="1.5" transform="rotate(-45 48.7071 66.4062)" fill="#FF7979"/>
<rect x="48.7071" y="66.4062" width="52" height="3" rx="1.5" transform="rotate(-45 48.7071 66.4062)" stroke="black"/>
<rect x="80" y="42" width="2" height="14" rx="1" fill="#1F212B"/>
</svg>
